<svg viewBox="0 0 100 100" xmlns="http://www.w3.org/2000/svg"><path fill="#00a900" d="M76.228 23.772C80.037 15.822 78.063 6.428 70.309 0c-9.826 8.146-10.255 20.996-1.543 29.67l1.563 1.563c8.673 8.71 21.543 8.282 29.671-1.541-6.426-7.756-15.82-9.728-23.77-5.919z"/><path fill="#fc8d00" d="M58.237 30.589c-10.294-5.02-22.365-2.051-29.338 6.406l10.783 10.78a3.102 3.101 0 010 4.416 3.123 3.123 0 01-2.208.919 3.123 3.123 0 01-2.208-.919l-9.806-9.806L.44 93.697a4.43 4.43 0 000 3.85 4.39 4.39 0 005.86 2.01l26.096-12.734-9.611-9.61a3.102 3.101 0 010-4.416 3.135 3.135 0 014.415 0l11.132 11.134 19.925-9.726A24.2 24.2 0 0069.411 63.05c5.878-12.052.88-26.584-11.174-32.462z"/></svg>
