<svg viewBox="0 0 100 100" xmlns="http://www.w3.org/2000/svg"><path fill="#e8f0f7" d="M0 0h100v100H0z"/><path fill="#00a900" d="M70.548 29.452c2.476-5.167 1.193-11.274-3.847-15.452-6.387 5.295-6.666 13.648-1.003 19.286l1.016 1.016C72.351 39.964 80.717 39.685 86 33.3c-4.177-5.041-10.283-6.323-15.451-3.847z"/><path fill="#fc8d00" d="M58.854 33.883c-6.691-3.263-14.537-1.333-19.07 4.164l7.009 7.008a2.016 2.016 0 0 1 0 2.87 2.03 2.03 0 0 1-1.435.597 2.03 2.03 0 0 1-1.435-.597l-6.374-6.374-16.263 33.353a2.88 2.88 0 0 0 0 2.503 2.854 2.854 0 0 0 3.809 1.307l16.962-8.278-6.247-6.247a2.016 2.016 0 0 1 0-2.87 2.038 2.038 0 0 1 2.87 0l7.236 7.237 12.951-6.322a15.73 15.73 0 0 0 7.25-7.25c3.821-7.834.572-17.28-7.263-21.101z"/></svg>