<svg xmlns="http://www.w3.org/2000/svg" viewBox="0 0 100 100"><path fill="#e8f0f7" d="M0 0h100v100H0z"/><path fill="#00a900" d="M69.962 30.038c2.899-6.05 1.397-13.201-4.505-18.092-7.478 6.199-7.805 15.98-1.174 22.581l1.19 1.19c6.6 6.63 16.396 6.303 22.58-1.175-4.89-5.902-12.04-7.403-18.091-4.504z"/><path fill="#fc8d00" d="M56.27 35.226c-7.835-3.82-17.022-1.561-22.33 4.876l8.207 8.206a2.36 2.36 0 010 3.36 2.376 2.376 0 01-1.68.699 2.376 2.376 0 01-1.68-.699l-7.463-7.463-19.043 39.053a3.372 3.372 0 000 2.93c.803 1.65 2.81 2.333 4.46 1.53l19.861-9.692-7.314-7.315a2.36 2.36 0 010-3.36 2.386 2.386 0 013.36 0l8.473 8.474 15.164-7.403a18.418 18.418 0 008.488-8.489c4.475-9.172.67-20.232-8.503-24.707z"/></svg>